<?xml version="1.0" encoding="iso-8859-1"?>
<!-- Uploaded to: SVG Repo, www.svgrepo.com, Generator: SVG Repo Mixer Tools -->
<svg fill="#000000" height="800px" width="800px" version="1.1" id="Layer_1" xmlns="http://www.w3.org/2000/svg" xmlns:xlink="http://www.w3.org/1999/xlink" 
	 viewBox="0 0 511.998 511.998" xml:space="preserve">
<g>
	<g>
		<g>
			<path d="M44.666,381.302c-3.262-3.26-8.546-3.254-11.804,0.008s-3.254,8.547,0.008,11.804l48.42,48.357
				c1.628,1.628,3.763,2.441,5.898,2.441c2.138,0,4.276-0.816,5.906-2.448c3.258-3.262,3.254-8.548-0.008-11.804L44.666,381.302z"/>
			<path d="M507.652,361.841c-3.334-9.583-9.034-19.57-18.535-28.462c-1.617-1.514-3.681-2.257-5.738-2.248
				c-0.034,0-0.069-0.003-0.105-0.003c-0.075,0.001-0.149,0.011-0.225,0.014c-2.017,0.088-4.004,0.896-5.539,2.43l-75.789,75.811
				L289.004,296.634l109.159-109.192l107.99-92.019l0.414-0.344c0.788-0.648,1.909-1.569,2.905-3.018
				c0.598-0.869,1.151-1.929,1.56-3.233c1.911-6.071,0.584-13.41-0.809-19.81c-1.153-5.303-3.071-9.977-5.701-13.891
				c-0.424-0.631-0.873-1.241-1.339-1.836c-0.14-0.179-0.292-0.348-0.436-0.524c-0.337-0.411-0.678-0.818-1.035-1.211
				c-0.173-0.19-0.354-0.372-0.531-0.557c-0.351-0.366-0.706-0.728-1.073-1.077c-0.185-0.175-0.374-0.345-0.562-0.515
				c-0.384-0.347-0.775-0.686-1.176-1.015c-0.184-0.15-0.37-0.299-0.556-0.446c-0.434-0.339-0.877-0.667-1.329-0.985
				c-0.168-0.118-0.334-0.237-0.504-0.352c-0.509-0.344-1.029-0.672-1.56-0.989c-0.126-0.075-0.248-0.154-0.375-0.227
				c-0.65-0.378-1.314-0.738-1.996-1.076c-0.012-0.006-0.024-0.013-0.037-0.019c-2.146-1.063-4.436-1.921-6.848-2.57
				c-0.151-0.041-0.306-0.075-0.457-0.114c-0.625-0.16-1.257-0.309-1.896-0.441c-0.236-0.049-0.474-0.091-0.712-0.136
				c-0.562-0.105-1.127-0.201-1.701-0.285c-0.293-0.042-0.586-0.08-0.88-0.117c-0.526-0.066-1.056-0.121-1.59-0.168
				c-0.332-0.029-0.664-0.057-0.999-0.079c-0.508-0.033-1.018-0.053-1.533-0.07c-0.359-0.011-0.718-0.024-1.081-0.028
				c-0.13-0.001-0.257-0.01-0.388-0.01c-0.41,0-0.825,0.02-1.238,0.031c-0.321,0.008-0.638,0.009-0.959,0.023
				c-0.864,0.039-1.728,0.097-2.591,0.18c-6.898,0.674-9.204,2.609-12.819,6.859l-64.719,75.997
				c-3.319,3.943-6.662,7.688-9.894,11.311c-0.728,0.816-1.451,1.626-2.17,2.434c-0.278,0.313-0.552,0.623-0.829,0.935
				c-0.446,0.503-0.895,1.007-1.339,1.51c-0.269,0.306-0.536,0.613-0.806,0.919c-0.444,0.506-0.889,1.013-1.331,1.52
				c-0.279,0.322-0.557,0.648-0.836,0.971c-0.427,0.495-0.855,0.989-1.28,1.488c-0.287,0.337-0.572,0.68-0.859,1.021
				c-0.412,0.489-0.825,0.976-1.235,1.47c-0.295,0.355-0.588,0.719-0.881,1.077c-0.4,0.487-0.799,0.973-1.198,1.467
				c-0.3,0.373-0.599,0.757-0.899,1.135c-0.388,0.49-0.778,0.977-1.165,1.477c-0.312,0.401-0.622,0.815-0.933,1.222
				c-0.329,0.432-0.66,0.856-0.988,1.295l-108.96,108.993L147.036,154.623c-0.31-0.414-0.621-0.814-0.933-1.222
				c-0.322-0.422-0.642-0.848-0.964-1.263c-0.371-0.477-0.742-0.944-1.113-1.412c-0.318-0.403-0.637-0.81-0.957-1.209
				c-0.375-0.466-0.751-0.923-1.127-1.382c-0.318-0.39-0.637-0.784-0.957-1.169c-0.387-0.467-0.778-0.927-1.166-1.389
				c-0.309-0.367-0.618-0.738-0.928-1.103c-0.411-0.482-0.825-0.961-1.238-1.439c-0.294-0.341-0.585-0.683-0.88-1.022
				c-0.442-0.509-0.888-1.016-1.333-1.524c-0.268-0.306-0.535-0.612-0.805-0.918c-0.578-0.654-1.16-1.31-1.742-1.967
				c-0.137-0.154-0.273-0.307-0.41-0.462c-0.727-0.817-1.459-1.637-2.196-2.464c-3.232-3.622-6.573-7.367-9.923-11.343
				L55.675,47.372c-2.033-2.389-3.653-4.047-5.906-5.159c-0.25-0.124-0.509-0.24-0.777-0.351c-0.535-0.22-1.107-0.416-1.728-0.587
				c-1.242-0.342-2.679-0.59-4.403-0.758c-1.597-0.157-3.209-0.236-4.789-0.236c-13.108,0-24.26,5.41-30.599,14.846
				c-0.657,0.978-1.27,2.004-1.837,3.075c-0.653,1.234-1.24,2.535-1.773,3.888c-0.198,0.504-0.391,1.014-0.572,1.534
				c-0.599,1.716-1.109,3.513-1.518,5.393c-0.957,4.399-1.884,9.242-1.748,13.811c0.061,2.077,0.342,4.097,0.938,5.993
				c0.137,0.436,0.289,0.845,0.454,1.228c1.155,2.682,2.91,4.124,4.016,5.032l107.466,91.564c0.001,0.001,0.003,0.002,0.004,0.003
				l0.935,0.797l109.155,109.189l-43.361,43.374c-3.259,3.261-3.259,8.546,0.002,11.804c1.629,1.63,3.765,2.444,5.901,2.444
				c2.136,0,4.274-0.815,5.903-2.445l43.358-43.371l9.4,9.402L131.49,430.583l-9.407-9.396l37.842-37.853
				c3.259-3.261,3.259-8.546-0.001-11.804c-3.262-3.262-8.546-3.259-11.805,0.001l-37.843,37.854l-75.789-75.811
				c-0.548-0.548-1.156-0.997-1.801-1.361c-0.058-0.032-0.112-0.071-0.17-0.102c-0.009-0.004-0.018-0.008-0.026-0.012
				c-3.068-1.625-6.944-1.212-9.609,1.282c-30.406,28.451-21.876,68.136-21.498,69.811c0.347,1.539,1.123,2.948,2.239,4.065
				l50.861,50.878c9.033,9.035,19.755,13.585,31.696,13.585c7.349,0,15.165-1.743,23.325-5.206c0.042-0.018,0.086-0.036,0.129-0.053
				c0.273-0.117,0.543-0.218,0.817-0.338c0.402-0.177,0.789-0.366,1.185-0.548c0.062-0.029,0.125-0.058,0.187-0.086
				c1.91-0.883,3.746-1.815,5.501-2.78c0.169-0.092,0.338-0.185,0.506-0.277c0.479-0.267,0.949-0.533,1.415-0.804
				c0.303-0.175,0.6-0.351,0.897-0.528c0.372-0.22,0.747-0.441,1.11-0.662c0.653-0.398,1.29-0.798,1.911-1.195
				c0.179-0.115,0.352-0.229,0.528-0.344c0.557-0.362,1.1-0.72,1.628-1.077c0.108-0.073,0.217-0.146,0.324-0.219
				c6.834-4.651,11.176-8.753,11.574-9.134c0.001-0.001,0.003-0.003,0.004-0.004c0.007-0.007,0.028-0.027,0.033-0.031
				c0.044-0.042,0.089-0.086,0.132-0.129l118.612-118.65l116.885,116.922l1.733,1.733c0.042,0.042,0.086,0.083,0.129,0.126
				c0.159,0.152,0.913,0.864,2.161,1.942c6.504,5.614,26.653,21.292,48.807,21.292c10.611,0,20.13-3.486,28.357-10.373
				c1.175-0.984,2.324-2.037,3.446-3.16l50.862-50.878c1.115-1.116,1.892-2.526,2.239-4.065
				C510.875,402.039,514.988,382.921,507.652,361.841z M383.063,158.602c0.666-0.811,1.334-1.617,2.01-2.417
				c0.183-0.216,0.363-0.433,0.545-0.649c0.841-0.991,1.688-1.974,2.544-2.956c0.188-0.216,0.378-0.432,0.568-0.648
				c0.722-0.826,1.449-1.651,2.182-2.479c0.228-0.257,0.455-0.514,0.684-0.771c0.849-0.956,1.703-1.914,2.566-2.883
				c3.309-3.711,6.732-7.548,10.176-11.638l64.695-75.969c0.267-0.314,0.571-0.672,0.824-0.959c0.223-0.028,0.518-0.063,0.905-0.101
				c0.453-0.045,0.907-0.075,1.36-0.1c0.124-0.007,0.24-0.015,0.37-0.02c0.423-0.019,0.842-0.029,1.26-0.031
				c0.716-0.003,1.488,0.019,2.296,0.076c0.109,0.008,0.219,0.017,0.331,0.026c0.246,0.02,0.499,0.047,0.75,0.073
				c0.201,0.022,0.401,0.042,0.607,0.07c0.078,0.01,0.157,0.023,0.235,0.035c2.765,0.391,5.92,1.279,8.679,3.159
				c0.082,0.057,0.167,0.11,0.249,0.168c0.253,0.179,0.499,0.373,0.743,0.57c0.156,0.126,0.31,0.255,0.463,0.388
				c0.198,0.174,0.394,0.352,0.585,0.538c0.206,0.2,0.404,0.413,0.601,0.63c0.14,0.152,0.283,0.3,0.417,0.462
				c0.333,0.397,0.656,0.814,0.956,1.262c1.45,2.158,2.542,4.894,3.247,8.132c1.23,5.648,1.476,8.623,1.37,10.187l-101.445,86.441
				l-11.194-10.08C382.783,158.945,382.923,158.772,383.063,158.602z M118.161,169.194L16.715,82.752
				c-0.013-0.195-0.021-0.413-0.021-0.654c-0.008-1.693,0.316-4.589,1.391-9.53c0.705-3.238,1.796-5.974,3.247-8.132
				c4.359-6.491,12.359-7.459,16.74-7.459c1.04,0,2.104,0.052,3.164,0.157c0.386,0.037,0.68,0.071,0.904,0.1
				c0.253,0.288,0.555,0.644,0.823,0.957l64.666,75.936c3.474,4.125,6.896,7.96,10.206,11.669c0.842,0.944,1.674,1.878,2.502,2.809
				c0.269,0.304,0.538,0.607,0.806,0.909c0.698,0.787,1.389,1.573,2.077,2.358c0.209,0.239,0.42,0.477,0.628,0.717
				c0.852,0.978,1.697,1.959,2.534,2.945c0.181,0.213,0.359,0.428,0.54,0.642c0.679,0.805,1.352,1.615,2.021,2.431
				c0.138,0.169,0.277,0.338,0.414,0.508L118.161,169.194z M118.862,441.945c-0.102,0.075-0.211,0.152-0.315,0.228
				c-0.407,0.296-0.824,0.597-1.259,0.903c-0.06,0.042-0.124,0.086-0.185,0.128c-0.494,0.346-1.003,0.696-1.531,1.05
				c-0.013,0.009-0.028,0.019-0.042,0.028c-3.458,2.313-7.606,4.742-12.142,6.704c-2.729,1.18-5.353,2.089-7.886,2.748
				c-0.56,0.144-1.123,0.272-1.687,0.392c-0.182,0.04-0.367,0.082-0.55,0.12c-2.303,0.46-4.638,0.725-6.975,0.725
				c-0.001,0-0.002,0-0.003,0c-0.901,0-1.786-0.043-2.657-0.121c-0.068-0.007-0.138-0.01-0.206-0.017
				c-0.398-0.039-0.792-0.088-1.184-0.144c-0.505-0.073-1.009-0.154-1.506-0.255c-0.221-0.044-0.441-0.1-0.66-0.15
				c-0.536-0.125-1.07-0.258-1.596-0.416c-0.086-0.026-0.172-0.047-0.258-0.073c-0.671-0.209-1.333-0.446-1.987-0.71
				c-0.06-0.023-0.119-0.048-0.179-0.072c-0.679-0.279-1.35-0.585-2.01-0.924c-0.001,0-0.002-0.001-0.003-0.001
				c-1.34-0.688-2.64-1.501-3.903-2.433c-0.052-0.038-0.104-0.076-0.156-0.115c-0.59-0.441-1.171-0.909-1.745-1.403
				c-0.085-0.072-0.167-0.148-0.252-0.221c-0.573-0.504-1.141-1.027-1.698-1.585L17.293,397.32
				c-0.331-2.336-0.735-6.382-0.551-11.407c0.351-9.593,2.841-22.754,12.068-34.404l73.918,73.941l1.648,1.646
				c0.001,0.001,0.003,0.002,0.004,0.004l14.7,14.681C119.006,441.837,118.938,441.889,118.862,441.945z M371.577,171.617
				l9.892,8.908L277.2,284.826l-9.399-9.402L371.577,171.617z M380.506,430.583L130.525,180.525l9.893-8.909l249.494,249.57
				L380.506,430.583z M495.324,389.769c-0.018,0.806-0.049,1.574-0.09,2.298c-0.122,2.174-0.332,3.959-0.519,5.242l-49.007,49.021
				c-1.09,1.09-2.205,2.076-3.349,2.956c-4.955,3.819-10.437,5.684-16.648,5.683c-0.041,0-0.082-0.003-0.124-0.003
				c-0.667-0.002-1.333-0.03-1.999-0.073c-0.238-0.016-0.475-0.038-0.712-0.058c-0.494-0.042-0.988-0.095-1.481-0.158
				c-0.238-0.03-0.476-0.059-0.715-0.095c-0.607-0.09-1.212-0.194-1.815-0.312c-0.099-0.02-0.198-0.033-0.297-0.055
				c-0.69-0.14-1.377-0.304-2.06-0.479c-0.226-0.058-0.451-0.121-0.676-0.182c-0.485-0.132-0.969-0.272-1.45-0.419
				c-0.23-0.07-0.461-0.14-0.69-0.215c-0.567-0.182-1.13-0.375-1.69-0.576c-0.112-0.04-0.226-0.077-0.337-0.118
				c-0.667-0.245-1.327-0.505-1.98-0.773c-0.189-0.078-0.375-0.158-0.563-0.238c-0.487-0.206-0.972-0.417-1.451-0.633
				c-0.194-0.088-0.386-0.175-0.579-0.264c-0.56-0.259-1.113-0.525-1.658-0.797c-0.076-0.038-0.152-0.073-0.227-0.111
				c-0.64-0.322-1.269-0.65-1.888-0.984c-0.112-0.061-0.223-0.122-0.335-0.184c-0.514-0.28-1.022-0.564-1.519-0.85
				c-0.123-0.071-0.246-0.141-0.368-0.213c-1.833-1.067-3.55-2.16-5.117-3.225c-0.023-0.016-0.048-0.032-0.071-0.048
				c-1.071-0.729-2.072-1.443-2.994-2.125l14.708-14.689l75.567-75.589c9.725,12.237,11.997,26.066,12.142,35.735
				C495.346,388.119,495.342,388.964,495.324,389.769z"/>
			<path d="M467.332,381.301l-48.42,48.357c-3.262,3.258-3.265,8.543-0.008,11.804c1.63,1.633,3.767,2.449,5.906,2.449
				c2.134,0,4.269-0.814,5.899-2.441l48.42-48.357c3.262-3.258,3.265-8.543,0.008-11.804
				C475.879,378.047,470.594,378.044,467.332,381.301z"/>
		</g>
	</g>
</g>
</svg>